<svg xmlns="http://www.w3.org/2000/svg" viewBox="0 0 1277.7 2000.3" width="1278" height="2000"><title>Bridge Church</title><g fill="none" stroke="#395781" stroke-width="81.6"><path d="M581 192.3L990.8 133.5"/><path d="M487.5 283.9L433.3 612.2"/><path d="M1080.2 202.7L1143.9 774.1"/><path d="M499.3 709.9L1073.6 837.2"/><circle cx="500.7" cy="203.8" r="81.2"/><circle cx="1071.2" cy="122" r="81.2"/><circle cx="420.1" cy="692.3" r="81.2"/><circle cx="1152.9" cy="854.8" r="81.2"/></g><g fill="#395781"><rect x="0" y="1173.7" width="1277.7" height="35.6"/><rect x="0" y="1964.7" width="1277.7" height="35.6"/><path d="M457.9 1412.8l-28 28.2 3.6 3.8c3 3.1 27 27.8 47.5 48.7l4.9 5 5.1-5.2c18.4-18.8 45.1-46.3 47.8-49.1l3.1-3.2-28-28.2-28-28.3-28 28.3zM775.7 1398.6c-.1 .2-1.1 .5-2.2 .7-1.9 .5-4 1.2-6.9 2-.8 .2-2.3 .7-3.2 .9-1 .3-4.9 1.4-8.8 2.6-3.8 1.2-7.8 2.3-8.7 2.5-1.7 .5-3.6 1-6.8 2-.8 .2-4.6 1.3-8.5 2.5-7.9 2.3-9.8 2.9-12 3.4l-1.5 .4-.1 49.9c-.1 30.9-.3 49.8-.6 49.8-.3 0-1.8-.3-3.4-.8-4.8-1.3-12.9-2.9-18.9-3.7-4.9-.7-27.6-.7-31.3 0-1.5 .2-4.4 .7-6.4 1-10.9 1.6-20.5 4.5-31.3 9.5-1.6 .7-3.9 1.8-5 2.3-1.1 .5-2.9 1.5-4.1 2.3-1.1 .7-2.2 1.4-2.4 1.4-.3 0-6.3 4-6.7 4.5-.2 .2-1.5 1.2-3.1 2.2-10.5 7.5-21.1 19.5-28.4 32-3.5 6.1-7.4 14.2-8.8 18.6-.4 1.4-1 2.9-1.2 3.4-1.3 2.9-4.1 14.2-5 20.1-.3 2-.8 5.2-1.1 7.1-.6 4.4-.7 26.6 0 30.4 .3 1.6 .8 4.7 1.1 6.9 .6 4.1 2.9 13.9 4.2 17.5 2.3 6.6 3.1 8.5 5.1 12.7 1.2 2.5 2.2 4.8 2.2 4.8 0 1.7 11.9 19.1 16.4 24 7.6 8.3 19.8 18.7 25 21.3 .7 .4 2.2 1.3 3.3 2 1.8 1.2 10.8 5.7 14.2 7 2.2 1 3.4 1.4 5.1 2 .9 .3 2.2 .8 2.7 1 14.4 5.7 43.4 8.2 59.3 5 5.6-1.1 8.6-1.8 13-2.8 18.9-4.9 24.3-6.2 25.1-6.2 .7 0 4.9 1.4 8.9 3.1 1.4 .6 1.1 .5 10 3.9 8.8 3.4 8.5 3.3 10 3.9 6.3 2.6 13.1 5.1 13.5 4.8 .3-.2 .5-68 .5-179.3l0-178.9-1.4 0c-.8 0-1.6 .2-1.8 .3zM690.9 1566.8c1.5 .2 4.4 .7 6.5 1 4.5 .8 8.7 2.2 14.9 5.3l4.6 2.3-.1 54.7-.2 54.8-2.2 1.3c-5.8 3.3-15.6 8-18.8 9-9 2.8-25.3 2.1-33.6-1.4-.6-.3-1.7-.8-2.5-1-10.1-4.3-23.8-16.3-28.2-25-.4-.7-1.2-2.3-1.9-3.5-7.9-13.8-10.4-36.8-5.9-53.8 5.8-22 21.6-38.2 41.9-42.7 1.5-.3 3.4-.8 4.2-1 2.2-.6 18.1-.6 21.3 0zM3.1 1412.3c-.1 .5-.2 75.5-.1 167l.1 166.2 60 0c60 0 64.8 0 74.8-1.7 1.5-.3 4.3-.7 6.2-1 7.1-1.2 23-5.5 29-8 26.9-11 43.5-26.4 53.4-49.5 .3-.7 .7-1.7 .9-2.3 .7-1.7 3.4-11.8 3.9-15 3.1-17.5 .6-41.5-5.8-56.2-4-9.5-12.3-21.4-17.8-25.7-.8-.7-2.5-2.1-3.6-3.1-4.2-3.8-14.2-9.8-20.6-12.2-.6-.3-1.6-.7-2.2-1-.7-.2-2.1-.7-3.2-1-1.1-.4-2.2-.8-2.4-1-.3-.3 2.1-3 5.3-6.2 8-7.9 15-17.5 18.4-25.1 2.7-6 3.2-7.5 5-14.5 2.6-9.8 3-27.8 1-37.5-4.7-21.5-11.7-33.6-27.3-46.7-4.7-4-17.1-11-24.6-14-.6-.3-1.6-.7-2.2-1-6.2-2.4-14.8-5.2-19.2-6-1.6-.3-3.8-.8-4.7-1-2.5-.6-14.2-2.3-20.8-3-8.6-1-103.1-1.3-103.5-.5zM84.9 1466.8c18.4 1.1 25.3 2.5 35.7 7.2 9.3 4.3 16.7 13 18.7 22 .3 1.4 .8 3.6 1.1 4.9 1.5 6.9-.2 18.6-3.7 25.6-4.3 8.5-11.5 15.3-19.3 18.3-1 .3-2.2 .8-2.8 1-7.4 3-15 4-33.1 4.3l-14.1 .3 0-41.7c0-22.9 .1-41.9 .3-42.1 .5-.5 7.6-.4 17.2 .2zM119.6 1605c6.4 1 14.3 2.8 18.3 4.3 4.1 1.7 12.1 5.6 13 6.5 .1 .2 1.1 .9 2.2 1.7 9 6.7 13.7 17.1 13.8 30.1 0 18.5-8.9 30.9-27.4 38.2-2.3 1-3.7 1.5-4.7 2-1.5 .5-8.8 2.2-12.9 3-6 1-22.6 1.5-38.5 1.4l-15.8-.2-.1-43.5c-.1-23.9 0-43.7 .1-44.2 .4-1 44.2-.5 52 .7zM512.1 1498.8c-.3 .2-2 1-4 1.7-1.9 .7-4.3 1.7-5.2 2.1-1 .4-2.2 1-2.8 1.2-.5 .2-1.8 .7-2.7 1.2-1 .4-3.6 1.5-5.8 2.3-2.2 .8-4.7 1.9-5.6 2.3-.9 .4-2.4 1-3.2 1.4-.9 .4-3.5 1.5-5.7 2.3-2.2 .8-4.8 1.9-5.7 2.3-1 .4-2.2 1-2.8 1.2-.5 .2-1.8 .7-2.7 1.2-1 .4-3.6 1.5-5.8 2.3-2.2 .8-4.7 1.9-5.6 2.3l-1.6 .8 0 111.4 0 111.5 31 0 31 0 0-124 0-124-1.2 0c-.6 0-1.3 .2-1.6 .5zM274.3 1504.6c-.1 .3-.1 54.9 .1 121.4l.2 121 30.5 0 30.5 0 .3-80 .2-80 1.5-2.5c3.6-6 9.2-11.5 14.2-13.7 18-8.3 37.5-4.9 52.8 9 1.6 1.5 3 2.4 3.2 2.2 .3-.2 7.1-12.1 15.2-26.3l14.8-25.9-2.1-1.7c-5.3-4.2-13.9-9.2-20.1-11.6-1.9-.7-3.9-1.5-4.5-1.7-.5-.3-1.5-.6-2.2-.8-.7-.1-3-.7-5-1.2-16.1-4.3-36.4-4.8-52.6-1.3-11.2 2.4-26.6 8.7-34.8 14.3-2.8 2-3.4 1.9-8.2-1-2.3-1.5-4.9-3-5.8-3.6-.8-.4-2.8-1.7-4.3-2.6-1.6-1-4.1-2.6-5.6-3.6-1.5-.9-2.8-1.7-3-1.7-.2 0-1.2-.7-2.4-1.5-3.4-2.3-12.1-7.5-12.6-7.5-.1 0-.2 .2-.3 .3zM919.9 1508.8c-6.6 .4-13.2 1.2-17 2-1.3 .3-3.2 .8-4.4 1-6.6 1.5-7.9 1.8-10.2 3-.5 .3-1.2 .5-1.5 .5-.9 0-11.5 5.5-15.7 8-17.1 10.6-29.4 27.7-34.7 48.5-2.1 8.4-2.7 13.1-2.7 22.7-.1 12.3 1.4 21.3 4.7 29.5 5.9 14.7 16.8 28 27.6 33.8 3.4 1.8 3.5 2.1 1 3-9.8 3.4-18.4 9.5-20.8 14.7-4.8 10.1-2.4 22.1 5.8 28.9 1.5 1.2 2.7 2.2 2.9 2.4 .5 .7 6.3 4.3 8.1 5.2 1 .5 1.9 1 1.9 1.3 0 1.2-5.1 4.5-8.8 5.7-7.6 2.6-12.6 5.6-17.8 10.8-2.7 2.7-7.4 8.8-7.4 9.7 0 0-.9 1.8-2.1 3.8-6.7 12.2-9.3 30.7-6.4 44.2 4.2 19.3 20.9 37.5 42.2 46 8.5 3.3 15.2 5.1 27.3 7.1 6.4 1.1 30.4 1.2 36.5 .3 2-.4 5.3-.9 7.2-1.1 7.7-1.3 19.2-4 24.5-6 1.7-.6 4-1.4 5.3-1.8 2.2-.8 2.7-1 6-2.4 .9-.4 2.7-1.1 4-1.6 2.3-1 13.6-6.5 16.2-8 .9-.5 2.4-1.5 3.5-2.2 1.1-.7 2.4-1.5 2.8-1.8 13.9-8.4 28.4-24.2 33.8-36.6 .7-1.6 1.4-3.3 1.6-3.9 5.2-11.8 4.4-34-1.6-47-4.5-9.6-12.4-18.3-21.1-23.2-8.3-4.8-16.3-7.4-27.2-9-11.4-1.7-14-2-34-3.5-12.3-1-18.5-2.6-18.5-4.8 0-1.5 2.1-2.5 9.2-4.5 6.1-1.5 16-4.9 19.7-6.5 1.6-.8 3.6-1.7 4.6-2 14.6-6.4 25-13.4 33.8-22.8 3-3.3 8.7-10.5 8.7-11.2 0-.1 .6-1.2 1.4-2.4 13.1-19 15.4-54.2 5.2-76.8-8.3-18.4-23.3-33.9-40.9-42.5-5.3-2.5-8.7-4-9.4-4-.3 0-.8-.2-1.1-.4-.3-.3-1.5-.7-2.7-1.1-1.3-.3-2.8-.8-3.5-1-7.7-2.3-25.1-5-29.2-4.5-.3 .1-3.4 .3-6.8 .5zM930.9 1560.8c23.2 3.7 35.1 29.7 23.9 52.5-2.1 4.2-9.9 13-11.5 13-.3 0-1.1 .4-1.8 .9-7.2 5.1-21.7 4.8-30.8-.4-4.2-2.6-10.6-9.5-11.9-12.9-.2-.6-.9-2.1-1.5-3.5-4.1-8.9-3.9-22.4 .3-31.4 2.3-4.8 9.7-13.7 11.4-13.7 .3 0 1.1-.4 1.8-.9 4.8-3.4 12.7-4.8 20.1-3.6zM953.1 1744.8c13.3 1.5 17.9 3.2 21 7.4 2 2.7 2.4 7.3 1 10.8-2.7 6.4-12.9 14.1-24.7 18.8-1.5 .6-3.4 1.3-4.3 1.7-1.8 .8-3.8 1.5-6.7 2.3-1.3 .3-2.8 .8-3.5 1-.7 .2-2.6 .7-4.3 1-1.6 .3-3.4 .7-4 .8-6.3 1.5-22.7 2.2-27.1 1.2-5.6-1.3-7-1.7-9.3-2.8-11.5-5.8-12.5-17.8-2.2-27.7 2.1-2.1 4.7-4.3 5.7-4.8 1.1-.6 3.2-1.7 4.7-2.6 6.2-3.4 20.2-7.1 29.2-7.8 4.1-.3 19.7 .2 24.5 .7zM1163.9 1510.8c-6.2 .4-12.4 1.2-16.3 2-1.1 .2-3.2 .7-4.7 1-6.1 1.3-15.3 4.2-19.5 6-6.4 3-13 6.4-16.3 8.7-17.7 12-30.5 27.6-38.9 47.4-.5 1.1-1.1 2.6-1.5 3.5-1.3 2.9-4.4 12.8-5.3 17.1-.3 1.4-.8 3.3-1 4.3-.2 1-.7 3.7-1 6.2-.3 2.5-.8 6-1.1 7.9-.6 4.4-.6 23.6 .1 28.1 .2 2 .7 5.5 1 7.8 .3 2.3 .8 4.9 1 5.7 .2 .8 .6 2.9 1 4.5 .8 4 4.3 15.3 5.8 18.6 .7 1.5 1.7 4 2.4 5.5 1.4 3.2 2.5 5.4 4.2 8.3 .6 1.1 1.5 2.7 2.1 3.7 3.4 6.1 12 16.7 18.4 22.7 4 3.8 15 12.5 15.8 12.5 .2 0 1 .4 1.7 .9 2.6 1.8 7.3 4.4 11.8 6.4 1.7 .7 3.7 1.6 4.5 1.9 .9 .5 2.5 1 3.8 1.5 1.2 .4 3.8 1.3 5.7 2 3.1 1 8.2 2.4 14.5 3.8 10 2.2 28.7 3 40.8 1.7 10.3-1 10.3-1 22.7-4.5 7.5-2 15-5 24.3-9.7 6.3-3.2 12.4-6.5 14.5-8 .7-.5 2.5-1.6 4-2.5 3-1.8 14-9.9 14-10.3 0-.4-2.7-5.4-6.5-12-.6-.9-1.5-2.5-2-3.5-.6-.9-1.5-2.5-2-3.5-.6-.9-1.5-2.5-2.1-3.6-.6-1-1.6-2.9-2.3-4.1-.7-1.3-1.7-3-2.3-4-.6-1-1.6-2.8-2.3-4-4-7.3-6.8-12-7.3-12-.2 0-1.9 1.2-3.7 2.8-1.8 1.5-4.3 3.5-5.5 4.4-1.3 .8-2.4 1.6-2.5 1.8-.4 .5-9.3 6.4-11.7 7.7-5.7 3.2-6.8 3.7-10.1 5-14.4 5.8-25.2 6.8-43 4.3-19.9-3-36-15.2-43.8-33.3-1.1-2.6-2-7.5-2.3-12.1l-.3-5.1 76.9 0 76.8 0-.3-8.9c-.1-4.9-.5-10.6-.7-12.9-.3-2.2-.7-6.1-1.1-8.7-.3-2.6-.7-5.6-.9-6.5-.3-1-.7-3.1-1-4.8-1.2-5.8-1.6-7.5-4.6-17-.6-1.6-1.2-3.5-1.5-4.1-.7-1.9-1.3-3.3-2.2-5.6-15.5-38.5-46.6-61.8-87-65-3.3-.3-6.2-.5-6.5-.4-.2 0-3.3 .2-6.7 .4zM1175.2 1563.8c10.4 1.9 18.1 7.2 24.5 16.7 3 4.6 6.7 12.7 6.7 14.8 0 .3-14.6 .5-39.8 .5-22.1 0-39.7-.2-39.7-.5 0-1.7 4.3-10.2 7.2-14 3.9-5.2 13.9-14 16-14 .2 0 1.2-.5 2.4-1 1.9-.8 7-2.2 10.4-2.7 2.7-.4 9.4-.3 12.3 .2z"/></g></svg>